<?xml version="1.0" standalone="no"?>
<!DOCTYPE svg PUBLIC "-//W3C//DTD SVG 20010904//EN"
 "http://www.w3.org/TR/2001/REC-SVG-20010904/DTD/svg10.dtd">
<svg version="1.0" xmlns="http://www.w3.org/2000/svg"
 width="25.000000pt" height="25.000000pt" viewBox="0 0 96.000000 96.000000"
 preserveAspectRatio="xMidYMid meet">

<g transform="translate(0.000000,96.000000) scale(0.100000,-0.100000)"
fill="#000000" stroke="none">
<path d="M395 791 c-130 -60 -165 -225 -70 -329 l33 -36 -44 -28 c-54 -34
-100 -96 -119 -161 -22 -75 -20 -87 15 -87 21 0 30 5 30 16 0 108 125 224 240
224 115 0 240 -116 240 -224 0 -11 9 -16 30 -16 35 0 37 12 15 87 -19 65 -65
127 -119 161 l-44 28 33 36 c71 77 72 195 2 275 -61 69 -161 92 -242 54z m155
-61 c45 -23 80 -80 80 -130 0 -76 -74 -150 -151 -150 -73 0 -149 76 -149 150
0 48 35 107 78 129 48 26 93 26 142 1z"/>
</g>
</svg>
